inDegrees=no
num_controls=7
num_derivatives=13
num_iterations=111
num_multipliers=7
num_parameters=0
num_slacks=7
num_states=26
objective=4.959966
objective_accelerations=0.698497
objective_balance=0.044825
objective_effort=0.673363
objective_height=3.436689
objective_ligament=0.106592
solver_duration=1138.978933
status=Solve_Succeeded
success=true
DataType=double
version=3
OpenSimVersion=4.4-2022-07-23-0e9fedc
endheader
time	/jointset/ground_pelvis/pelvis_tilt/value	/jointset/ground_pelvis/pelvis_tx/value	/jointset/ground_pelvis/pelvis_ty/value	/jointset/hip_l/hip_flexion_l/value	/jointset/hip_l/hip_adduction_l/value	/jointset/hip_l/hip_rotation_l/value	/jointset/back/lumbar_extension/value	/jointset/patellofemoral_l/patellar_flexion_l/value	/jointset/knee_l/knee_flexion_l/value	/jointset/knee_l/knee_adduction_l/value	/jointset/knee_l/knee_rotation_l/value	/jointset/ankle_l/ankle_angle_l/value	/jointset/subtalar_l/subtalar_angle_l/value	/jointset/ground_pelvis/pelvis_tilt/speed	/jointset/ground_pelvis/pelvis_tx/speed	/jointset/ground_pelvis/pelvis_ty/speed	/jointset/hip_l/hip_flexion_l/speed	/jointset/hip_l/hip_adduction_l/speed	/jointset/hip_l/hip_rotation_l/speed	/jointset/back/lumbar_extension/speed	/jointset/patellofemoral_l/patellar_flexion_l/speed	/jointset/knee_l/knee_flexion_l/speed	/jointset/knee_l/knee_adduction_l/speed	/jointset/knee_l/knee_rotation_l/speed	/jointset/ankle_l/ankle_angle_l/speed	/jointset/subtalar_l/subtalar_angle_l/speed	/forceset/tau_hip_flexion_l	/forceset/tau_hip_adduction_l	/forceset/tau_hip_rotation_l	/forceset/tau_knee_flexion_l	/forceset/tau_ankle_angle_l	/forceset/tau_subtalar_angle_l	/forceset/tau_lumbar_extension	lambda_cid13_p0	lambda_cid13_p1	lambda_cid13_p2	lambda_cid13_p3	lambda_cid13_p4	lambda_cid13_p5	lambda_cid14_p0	/jointset/ground_pelvis/pelvis_tilt/accel	/jointset/ground_pelvis/pelvis_tx/accel	/jointset/ground_pelvis/pelvis_ty/accel	/jointset/hip_l/hip_flexion_l/accel	/jointset/hip_l/hip_adduction_l/accel	/jointset/hip_l/hip_rotation_l/accel	/jointset/back/lumbar_extension/accel	/jointset/patellofemoral_l/patellar_flexion_l/accel	/jointset/knee_l/knee_flexion_l/accel	/jointset/knee_l/knee_adduction_l/accel	/jointset/knee_l/knee_rotation_l/accel	/jointset/ankle_l/ankle_angle_l/accel	/jointset/subtalar_l/subtalar_angle_l/accel	gamma_cid13_p0	gamma_cid13_p1	gamma_cid13_p2	gamma_cid13_p3	gamma_cid13_p4	gamma_cid13_p5	gamma_cid14_p0
0.5	-0.1463514490492027	-0.08335859647229667	0.6829814540748556	1.372086245040505	-0.3109473282179428	-0.01957098775824419	-0.8438539521214261	1.341843422365669	1.341843422365596	0.0252104983940241	-0.1744655613067044	0.2155266061990904	0.06107385326004348	-0.1240270585002095	-0.1384333825810908	-0.8910328325202589	2.690613030506794	0.02136937427275189	0.5750675978729792	-0.7561071649267747	2.801688052272695	2.801688052272738	0.4942504806085847	-0.0003844429130361945	0.4208772242823879	0.1955011016472778	-0.3411640844032306	-0.004386238480836769	-0.01548341825552025	-0.3304971493252888	0.1291704888366028	0.04347187530034108	0.3881630291831786	-2.623671849878525	-15.96754540027715	-0.7104503597215406	-22.35052844992543	-714.1345195838162	-69.41216865812245	-0.04290886468247864	1.508203151015724	1.308890400150845	-0.2868562631233286	-2.381690908301817	0.2302797192635859	-0.9538874418511176	2.757471236168046	-2.620348512242259	-2.620348512242353	-0.1726138318547496	0.03980356358357552	-1.951290724879508	-0.3916163197748831	-5.342271726271377e-08	-1.519262879978279e-06	-4.778504922647304e-07	-5.037487982117881e-07	-2.295747270760017e-07	-3.148458361413602e-07	-2.009841180925676e-07
0.51	-0.1475160553546666	-0.08467766939283679	0.6740588976296877	1.39887057398405	-0.3107230009109767	-0.01386936116962673	-0.8512767419184819	1.369725709173052	1.369725709173051	0.03014402010402777	-0.1744691054174504	0.2196363785220127	0.06300741645797749	-0.1088513857687079	-0.1254006706666193	-0.893252983869307	2.665932511159226	0.02348005986741289	0.5652382905382621	-0.7284410344336165	2.774407430394082	2.774407430394088	0.4924035511783123	-0.0003283979580839309	0.4009726658552906	0.1911272139760625	-0.3489299162126717	-0.005581820926572981	-0.01608393728072581	-0.3385646902709222	0.1301643088140076	0.04256083445262704	0.3963163509307602	-2.921565214786686	-15.32009723796168	-1.041689489076854	-22.11573519169787	-723.2503076049203	-69.09750082645029	-0.04273850253744158	1.528644893472316	1.297437715463449	-0.1558130858224048	-2.559290774130893	0.1992187562791999	-1.000542235685131	2.772647965261916	-2.836168330612299	-2.836168330617788	-0.198505682678336	-0.01222953179193591	-2.025781825274105	-0.472635286664733	1.867606273731331e-08	-1.370487169099967e-06	-7.406870439727789e-07	-5.416164993054359e-07	-1.869566414595813e-07	-5.325057597472216e-07	-1.352613209420918e-07
0.52	-0.1485276258210271	-0.08586701996856083	0.6651208959680239	1.425398486068829	-0.3104780155927282	-0.008266645625653461	-0.8584225776087429	1.39732433990066	1.397324339900777	0.03505751788298445	-0.1744722359772504	0.2235439565759308	0.06489476872002529	-0.09341989066681253	-0.1124889136178727	-0.8941218758194751	2.639329658765808	0.02550097653056416	0.5552853889474153	-0.7007163435654263	2.744956836317812	2.74495683631778	0.4902456943854481	-0.0003017327328415083	0.3804383704822066	0.1862589144700535	-0.3566957480222062	-0.00677740337235482	-0.01668445630571237	-0.3466322312165503	0.1311581287914222	0.04164979360485872	0.4044696726782533	-3.238116769113208	-14.66609787549003	-1.37772572768256	-21.8789404058405	-732.6223746193543	-68.82863490107908	-0.04249801749846795	1.559367625096294	1.284699427004776	-0.01660438334761499	-2.766157517471652	0.2123259329620036	-0.9786062930769023	2.769183311175286	-3.054342951773682	-3.054342951773508	-0.2347993043728566	0.03392761764199325	-2.077238114078547	-0.4904986867339169	7.588708290466366e-08	-1.345293597529888e-06	-1.062192474330035e-06	-5.9036511862183e-07	-1.665553521538718e-07	-8.261961471271226e-07	-8.006307295058961e-08
0.53	-0.1493838522395923	-0.0869279441830393	0.6561809486182448	1.451651010711125	-0.3102131062682154	-0.00276443732629494	-0.8652910108452254	1.424617888653177	1.424617888653261	0.03994851643050627	-0.1744750414461615	0.2272434040342254	0.06673129141903224	-0.07780537698773982	-0.09972384346944398	-0.8936415853681021	2.610866323041826	0.02746520858999158	0.5451415648851671	-0.6729788637335719	2.713412008465195	2.713412008465312	0.4878960073095203	-0.0002601500167416219	0.3593790531616818	0.1809732385938642	-0.3637780750065878	-0.008076373331876456	-0.01734485777159393	-0.3544579611708127	0.1321874405390853	0.04063122622890318	0.4119780102606694	-3.518525809403259	-13.96124827164024	-1.73383770870355	-21.59791859213325	-741.4427900580808	-68.43768947177161	-0.04215528025694423	1.56547923393515	1.26810048319863	0.1142159059979377	-2.932771766939481	0.1863507249989705	-1.034562584685362	2.77474632049777	-3.255678345938091	-3.255678345915826	-0.2439214105252878	-0.01112286140641719	-2.131138717871323	-0.5581040010748135	1.286285998231547e-07	-1.323398284526878e-06	-1.360742323457147e-06	-6.333382311036779e-07	-1.520526279198189e-07	-1.137110748945901e-06	-2.619879891638376e-08
0.54	-0.1500833363225017	-0.08786207976114815	0.6472525782023026	1.477609631962707	-0.309928978846602	0.002635874308059684	-0.8718823260831396	1.451585763998382	1.451585763998485	0.04481424450697623	-0.1744775103798828	0.2307300862839461	0.06851285696667461	-0.06207142352359551	-0.08713118634394862	-0.8918064890520481	2.580548980634732	0.02934459595205403	0.5349060559474587	-0.645292743849294	2.67982215485528	2.679822154855545	0.4851916001807016	-0.0002344257006492788	0.3378853287678673	0.1752674841971425	-0.3708604019910617	-0.009375343291400332	-0.01800525923757835	-0.3622836911250869	0.1332167522867699	0.03961265885295721	0.4194863478429963	-3.820827071744289	-13.24923402010549	-2.09489922878905	-21.29857369425316	-750.5586570870504	-68.08866149516302	-0.04182806727523542	1.583255582112239	1.250216822417117	0.2543567895883506	-3.136958854093966	0.1953569934893329	-0.9969432681687267	2.758911321660682	-3.463348103233329	-3.463348103233171	-0.3057433149507719	0.0307559376409506	-2.164119528738083	-0.5745143908406062	1.764251344237588e-07	-1.305152108661901e-06	-1.633894508244525e-06	-6.699214211302831e-07	-1.440759756799395e-07	-1.467081928441735e-06	2.618958903740908e-08
0.55	-0.1506251307038848	-0.08867123171127649	0.6383493059156851	1.503255990038708	-0.3096263579988973	0.007932935677951175	-0.878197177368363	1.478207747307265	1.478207747307283	0.0496517810478989	-0.1744796204468095	0.2340000321679709	0.07023556572574448	-0.04629138300681608	-0.07473518022935119	-0.8886233339721112	2.54842147019713	0.03116237513184345	0.5244857827038092	-0.6177028003466825	2.644251950843636	2.644251950843778	0.4822569953270696	-0.0001896274338293583	0.316066509470184	0.1692140932873645	-0.377210628512024	-0.01075143924174886	-0.018748275764392	-0.3697365303748384	0.1342345276191696	0.03850770377492375	0.4262977768406731	-4.093679588317372	-12.49705310538839	-2.471277090289552	-20.96305048075045	-759.016166225217	-67.61595435532085	-0.04151429548042334	1.574783064741596	1.228758046177876	0.3839620664279288	-3.295817600920792	0.1726990526979088	-1.067643479548775	2.755242793467898	-3.652250914769372	-3.652250914787685	-0.2962280102782212	-0.009370946406529964	-2.196406977268714	-0.6293629389476501	2.190929608667369e-07	-1.283485793584838e-06	-1.872899102256343e-06	-6.98678299497913e-07	-1.402339508844161e-07	-1.795753266957202e-06	7.612340034111589e-08
0.5600000000000001	-0.1510092437244996	-0.08935753049222124	0.629484598619713	1.528572038917814	-0.3093060172249072	0.01312517948999219	-0.8842368878327908	1.504464349703104	1.504464349703095	0.0544581897521777	-0.1744814250745689	0.2370506610896202	0.07189601827613643	-0.03053515135864761	-0.06256055250723541	-0.8840934909229615	2.514487141266438	0.0328885812105858	0.5139425443767431	-0.5902645796876864	2.606745972246417	2.606745972246435	0.4789660328851046	-0.0001733378713649208	0.2940219362930763	0.1628162424615378	-0.3835608550330809	-0.01212753519206616	-0.01949129229170135	-0.3771893696246233	0.1352523029516002	0.03740274869695034	0.4331092058382585	-4.390905218257833	-11.73750382434365	-2.852374035295658	-20.59443173935108	-767.7989275342532	-67.18156737023237	-0.04121397719935159	1.578493808391515	1.205941143919902	0.5236943834306782	-3.4983225527116	0.1770423732801948	-1.021536284851789	2.728566752938222	-3.850503020348285	-3.850503020348392	-0.3770148326171479	0.02505419677039188	-2.209270304624456	-0.6434063740504671	2.556063375205639e-07	-1.257715311453273e-06	-2.07092658733749e-06	-7.18043603874773e-07	-1.413534790221197e-07	-2.122864796296231e-06	1.231117196647195e-07
0.5700000000000001	-0.1512361635573703	-0.08992326970989213	0.6206718772112793	1.553539849324906	-0.3089687753049646	0.01821106100845811	-0.890003114016269	1.530336429927874	1.530336429927815	0.05923036677613173	-0.1744829792610037	0.239880097797821	0.07349105738464895	-0.01487828635186873	-0.05063137226167019	-0.8782300222525179	2.478780925805486	0.03454050431716422	0.503211467088917	-0.5630206600038418	2.567365325955186	2.567365325955362	0.4754058996457273	-0.0001394842200158247	0.2718643802171886	0.1561449361225996	-0.3891334964617547	-0.01356148040108332	-0.02033516717193397	-0.384139098618281	0.1361946253011116	0.03623724378451545	0.4391697985882497	-4.67041924733129	-10.95050615465985	-3.242702035513683	-20.18763950175066	-775.8121561695574	-66.62720013031581	-0.04092637311968753	1.554866720064129	1.179648477858793	0.6507599875943666	-3.650858116279269	0.156702833793336	-1.10218216326498	2.716304128257936	-4.027587384616688	-4.027587384592845	-0.3550675272542254	-0.00825138284831908	-2.219187480866666	-0.6855361739939697	2.860336708703399e-07	-1.22468014274648e-06	-2.225457378196733e-06	-7.284725111477068e-07	-1.444478054669544e-07	-2.423327152806015e-06	1.655489592974901e-07
